<svg xmlns="http://www.w3.org/2000/svg" viewBox="0 0 300 350" width="300" height="350">
  <defs>
    <linearGradient id="heartMuscle" x1="0%" y1="0%" x2="100%" y2="100%">
      <stop offset="0%" style="stop-color:#8B4A6B;stop-opacity:1" />
      <stop offset="50%" style="stop-color:#A0566C;stop-opacity:1" />
      <stop offset="100%" style="stop-color:#B85C6E;stop-opacity:1" />
    </linearGradient>
    <linearGradient id="arterial" x1="0%" y1="0%" x2="100%" y2="100%">
      <stop offset="0%" style="stop-color:#DC143C;stop-opacity:1" />
      <stop offset="100%" style="stop-color:#B22222;stop-opacity:1" />
    </linearGradient>
    <linearGradient id="venous" x1="0%" y1="0%" x2="100%" y2="100%">
      <stop offset="0%" style="stop-color:#4169E1;stop-opacity:1" />
      <stop offset="100%" style="stop-color:#191970;stop-opacity:1" />
    </linearGradient>
    <filter id="heartShadow" x="-20%" y="-20%" width="140%" height="140%">
      <feDropShadow dx="3" dy="5" stdDeviation="4" flood-color="rgba(0,0,0,0.3)"/>
    </filter>
  </defs>
  
  <!-- Main heart body -->
  <path d="M150,320 Q120,280 120,240 Q120,200 100,180 Q80,160 80,130 Q80,100 110,80 Q140,60 150,100 Q160,60 190,80 Q220,100 220,130 Q220,160 200,180 Q180,200 180,240 Q180,280 150,320 Z" 
        fill="url(#heartMuscle)" 
        stroke="#6B3A5B" 
        stroke-width="2" 
        filter="url(#heartShadow)"/>
  
  <!-- Right atrium -->
  <ellipse cx="180" cy="140" rx="25" ry="35" fill="#C85F7A" stroke="#A0566C" stroke-width="1.5"/>
  
  <!-- Left atrium -->
  <ellipse cx="120" cy="140" rx="25" ry="35" fill="#C85F7A" stroke="#A0566C" stroke-width="1.5"/>
  
  <!-- Right ventricle -->
  <path d="M170,170 Q190,180 190,220 Q190,250 170,270 Q150,280 150,250 Q150,220 170,170" 
        fill="#A0566C" stroke="#8B4A6B" stroke-width="1.5"/>
  
  <!-- Left ventricle -->
  <path d="M130,170 Q110,180 110,220 Q110,250 130,270 Q150,280 150,250 Q150,220 130,170" 
        fill="#A0566C" stroke="#8B4A6B" stroke-width="1.5"/>
  
  <!-- Aorta -->
  <path d="M140,80 Q130,60 130,40 Q130,20 140,10" 
        stroke="url(#arterial)" 
        stroke-width="8" 
        fill="none" 
        stroke-linecap="round"/>
  
  <!-- Pulmonary artery -->
  <path d="M160,80 Q170,60 170,40 Q170,20 160,10" 
        stroke="url(#arterial)" 
        stroke-width="6" 
        fill="none" 
        stroke-linecap="round"/>
  
  <!-- Superior vena cava -->
  <path d="M200,120 Q220,100 240,80 Q250,70 250,60" 
        stroke="url(#venous)" 
        stroke-width="6" 
        fill="none" 
        stroke-linecap="round"/>
  
  <!-- Inferior vena cava -->
  <path d="M190,180 Q210,200 230,220 Q240,230 240,250" 
        stroke="url(#venous)" 
        stroke-width="6" 
        fill="none" 
        stroke-linecap="round"/>
  
  <!-- Pulmonary veins -->
  <path d="M100,120 Q80,100 60,80 Q50,70 50,60" 
        stroke="url(#venous)" 
        stroke-width="4" 
        fill="none" 
        stroke-linecap="round"/>
  <path d="M110,180 Q90,200 70,220 Q60,230 60,250" 
        stroke="url(#venous)" 
        stroke-width="4" 
        fill="none" 
        stroke-linecap="round"/>
  
  <!-- Coronary arteries -->
  <path d="M120,120 Q140,110 160,120 Q180,130 190,150" 
        stroke="#FF6B6B" 
        stroke-width="3" 
        fill="none" 
        stroke-linecap="round"/>
  <path d="M130,160 Q150,150 170,160 Q180,170 185,185" 
        stroke="#FF6B6B" 
        stroke-width="2.5" 
        fill="none" 
        stroke-linecap="round"/>
  
  <!-- Heart valves (simplified) -->
  <circle cx="150" cy="170" r="3" fill="#FFD700" stroke="#FFA500" stroke-width="1"/>
  <circle cx="140" cy="180" r="2.5" fill="#FFD700" stroke="#FFA500" stroke-width="1"/>
  <circle cx="160" cy="180" r="2.5" fill="#FFD700" stroke="#FFA500" stroke-width="1"/>
  <circle cx="150" cy="160" r="2.5" fill="#FFD700" stroke="#FFA500" stroke-width="1"/>
  
  <!-- Pericardium outline -->
  <path d="M150,325 Q115,285 115,245 Q115,205 95,185 Q75,165 75,135 Q75,95 115,75 Q155,55 150,105 Q145,55 185,75 Q225,95 225,135 Q225,165 205,185 Q185,205 185,245 Q185,285 150,325" 
        fill="none" 
        stroke="#8B4A6B" 
        stroke-width="1" 
        stroke-dasharray="3,2" 
        opacity="0.6"/>
</svg>