<svg xmlns="http://www.w3.org/2000/svg" viewBox="0 0 250 220" width="250" height="220">
  <defs>
    <linearGradient id="medicalGradient" x1="0%" y1="0%" x2="100%" y2="100%">
      <stop offset="0%" style="stop-color:#e74c3c;stop-opacity:1" />
      <stop offset="50%" style="stop-color:#c0392b;stop-opacity:1" />
      <stop offset="100%" style="stop-color:#922b21;stop-opacity:1" />
    </linearGradient>
    <linearGradient id="pulseGradient" x1="0%" y1="0%" x2="100%" y2="0%">
      <stop offset="0%" style="stop-color:#3498db;stop-opacity:0" />
      <stop offset="50%" style="stop-color:#3498db;stop-opacity:1" />
      <stop offset="100%" style="stop-color:#3498db;stop-opacity:0" />
    </linearGradient>
  </defs>
  
  <!-- Heart shape -->
  <path d="M125,180 C125,180 65,140 65,100 C65,80 80,65 100,65 C110,65 120,70 125,80 C130,70 140,65 150,65 C170,65 185,80 185,100 C185,140 125,180 125,180 Z" 
        fill="url(#medicalGradient)" 
        stroke="#922b21" 
        stroke-width="2"/>
  
  <!-- EKG line -->
  <g stroke="url(#pulseGradient)" stroke-width="3" fill="none">
    <path d="M20,110 L40,110 L50,95 L60,125 L70,80 L80,140 L90,100 L100,120 L110,95 L120,115 L130,110 L230,110">
      <animate attributeName="stroke-dasharray" values="0,400;200,200;400,0;0,400" dur="3s" repeatCount="indefinite"/>
      <animate attributeName="stroke-dashoffset" values="0;-200;-400;-600" dur="3s" repeatCount="indefinite"/>
    </path>
  </g>
  
  <!-- Medical symbols -->
  <g fill="#ffffff" opacity="0.8">
    <!-- Stethoscope icon -->
    <circle cx="105" cy="105" r="8" fill="none" stroke="#ffffff" stroke-width="2"/>
    <path d="M105,97 Q95,90 85,95" stroke="#ffffff" stroke-width="2" fill="none"/>
    <path d="M105,113 Q115,120 125,115" stroke="#ffffff" stroke-width="2" fill="none"/>
    
    <!-- Plus sign -->
    <rect x="140" y="100" width="8" height="20" rx="1"/>
    <rect x="134" y="106" width="20" height="8" rx="1"/>
  </g>
  
  <!-- Pulse dots -->
  <circle cx="70" cy="80" r="2" fill="#3498db">
    <animate attributeName="r" values="2;5;2" dur="1.5s" repeatCount="indefinite"/>
    <animate attributeName="opacity" values="1;0.3;1" dur="1.5s" repeatCount="indefinite"/>
  </circle>
  <circle cx="125" cy="100" r="2" fill="#3498db">
    <animate attributeName="r" values="2;5;2" dur="1.5s" begin="0.5s" repeatCount="indefinite"/>
    <animate attributeName="opacity" values="1;0.3;1" dur="1.5s" begin="0.5s" repeatCount="indefinite"/>
  </circle>
  <circle cx="180" cy="120" r="2" fill="#3498db">
    <animate attributeName="r" values="2;5;2" dur="1.5s" begin="1s" repeatCount="indefinite"/>
    <animate attributeName="opacity" values="1;0.3;1" dur="1.5s" begin="1s" repeatCount="indefinite"/>
  </circle>
</svg>