<svg xmlns="http://www.w3.org/2000/svg" viewBox="0 0 200 180" width="200" height="180">
  <defs>
    <linearGradient id="heartGradient" x1="0%" y1="0%" x2="100%" y2="100%">
      <stop offset="0%" style="stop-color:#ff6b6b;stop-opacity:1" />
      <stop offset="50%" style="stop-color:#ee5a52;stop-opacity:1" />
      <stop offset="100%" style="stop-color:#c44569;stop-opacity:1" />
    </linearGradient>
    <filter id="shadow" x="-20%" y="-20%" width="140%" height="140%">
      <feDropShadow dx="2" dy="4" stdDeviation="3" flood-color="rgba(0,0,0,0.3)"/>
    </filter>
  </defs>
  
  <!-- Heart shape -->
  <path d="M100,160 C100,160 40,120 40,80 C40,60 55,45 75,45 C85,45 95,50 100,60 C105,50 115,45 125,45 C145,45 160,60 160,80 C160,120 100,160 100,160 Z" 
        fill="url(#heartGradient)" 
        stroke="#c44569" 
        stroke-width="2" 
        filter="url(#shadow)"/>
  
  <!-- Heart pulse line -->
  <g stroke="#ffffff" stroke-width="3" fill="none" opacity="0.8">
    <path d="M30,100 L50,100 L60,85 L70,115 L80,70 L90,130 L100,90 L110,110 L120,85 L130,105 L140,100 L170,100">
      <animate attributeName="stroke-dasharray" values="0,300;150,150;300,0;0,300" dur="2s" repeatCount="indefinite"/>
      <animate attributeName="stroke-dashoffset" values="0;-150;-300;-450" dur="2s" repeatCount="indefinite"/>
    </path>
  </g>
  
  <!-- Heartbeat dots -->
  <circle cx="100" cy="90" r="3" fill="#ffffff" opacity="0.9">
    <animate attributeName="r" values="3;6;3" dur="1s" repeatCount="indefinite"/>
    <animate attributeName="opacity" values="0.9;0.5;0.9" dur="1s" repeatCount="indefinite"/>
  </circle>
</svg>